# xmcd
#
# Track frame offsets: 
#        150
#        34160
#        54802
#        79386
#        112822
#        139394
#
# Disc length: 2171 seconds
#
# Revision: 0
# Processed by: cddbd v1.5.1PL0 Copyright (c) Steve Scherf et al.
# Submitted via: ExactAudioCopy v0.95a5
#
DISCID=48087906
DTITLE=Aurora - Theatre Du Chene Noir D'Avignon
DYEAR=1971
DGENRE=Avantgarde
TTITLE0=Arrivee De La Terre Et De Ses Enfants: L'aurore
TTITLE1=Le Bonheur
TTITLE2=La Vieillesse Et La Mort
TTITLE3=Le Conte De La Terre Et De Ses Enfants ...
TTITLE4=La Fascination Des Enfants De La Terre Par Les Hommes-oiseaux
TTITLE5=Vivre
EXTD=
EXTT0=
EXTT1=
EXTT2=
EXTT3=
EXTT4=
EXTT5=
PLAYORDER=
